<?xml version="1.0" encoding="UTF-8"?>
<svg xmlns="http://www.w3.org/2000/svg" width="841.89" height="595.28" viewBox="0 0 841.89 595.28">
  <defs>
    <style>
      .cls-1 {
        fill: #0d0d0d;
      }

      .cls-1, .cls-2, .cls-3, .cls-4, .cls-5 {
        stroke-width: 0px;
      }

      .cls-2 {
        fill: #f5f6f6;
      }

      .cls-3 {
        fill: #1c8e7f;
      }

      .cls-4 {
        fill: #106c5e;
      }

      .cls-5 {
        fill: #24b59c;
      }
    </style>
  </defs>
  <g id="Layer_2" data-name="Layer 2">
    <rect class="cls-1" width="841.89" height="595.28"/>
  </g>
  <g id="Layer_1" data-name="Layer 1">
    <g>
      <g>
        <path class="cls-2" d="M380.41,332.52c-4,0-7.6-.37-10.8-1.12-3.2-.75-5.98-1.83-8.31-3.25-2.34-1.42-4.22-3.12-5.65-5.1-1.43-1.98-2.41-4.16-2.94-6.55l12.32-5.15c.38,1.57,1.22,3.08,2.54,4.54,1.32,1.46,3.15,2.61,5.48,3.47,2.34.86,5.16,1.29,8.48,1.29s6.03-.5,7.92-1.51c1.88-1.01,2.83-2.45,2.83-4.31,0-1.42-.53-2.54-1.58-3.36-1.06-.82-2.58-1.53-4.58-2.13-2-.6-4.47-1.19-7.41-1.79-2.79-.52-5.62-1.19-8.48-2.02-2.87-.82-5.56-1.9-8.08-3.25-2.53-1.34-4.52-3.12-5.99-5.32-1.47-2.2-2.21-4.98-2.21-8.34,0-3.58.96-6.7,2.88-9.35,1.92-2.65,4.79-4.76,8.59-6.33,3.81-1.57,8.39-2.35,13.74-2.35,4.9,0,9.18.65,12.83,1.96,3.66,1.31,6.69,3.17,9.1,5.6,2.41,2.43,3.99,5.32,4.75,8.68l-13.12,4.37c-.3-1.87-1.04-3.45-2.2-4.76-1.17-1.31-2.71-2.31-4.64-3.02-1.92-.71-4.17-1.06-6.73-1.06-3.17,0-5.65.52-7.46,1.57-1.81,1.05-2.71,2.46-2.71,4.26,0,1.42.58,2.58,1.75,3.47,1.17.9,2.81,1.61,4.92,2.13,2.11.52,4.6,1.12,7.46,1.79,2.94.6,5.84,1.29,8.71,2.07,2.86.78,5.46,1.79,7.8,3.02,2.34,1.23,4.18,2.9,5.54,4.98,1.36,2.09,2.04,4.82,2.04,8.18,0,3.88-1.04,7.24-3.11,10.08-2.07,2.84-5.11,4.98-9.1,6.44-4,1.46-8.86,2.18-14.59,2.18Z"/>
        <path class="cls-2" d="M409.92,330.95v-80.08h16.28v18.37c0,1.57-.06,3.16-.17,4.76-.11,1.61-.3,3.25-.57,4.93s-.51,3.38-.73,5.1c-.23,1.72-.53,3.44-.9,5.15h2.6c1.05-3.88,2.39-7.21,4.02-9.97,1.62-2.76,3.71-4.89,6.28-6.38,2.56-1.49,5.8-2.24,9.72-2.24,6.94,0,12.14,2.43,15.61,7.28,3.46,4.85,5.2,12.17,5.2,21.95v31.14h-16.28v-28.56c0-6.2-.94-10.83-2.83-13.89-1.88-3.06-4.68-4.59-8.37-4.59-3.02,0-5.48.9-7.41,2.69s-3.41,4.2-4.47,7.22c-1.06,3.02-1.62,6.4-1.7,10.14v26.99h-16.28Z"/>
        <path class="cls-2" d="M480.93,263.3c-3.17,0-5.6-.67-7.29-2.02-1.7-1.34-2.54-3.25-2.54-5.71,0-2.61.83-4.59,2.49-5.94,1.66-1.34,4.11-2.02,7.35-2.02s5.62.67,7.35,2.02c1.73,1.34,2.6,3.32,2.6,5.94s-.85,4.46-2.54,5.77c-1.7,1.31-4.17,1.96-7.41,1.96ZM472.79,330.95v-58.8h16.28v58.8h-16.28Z"/>
        <path class="cls-2" d="M495.63,330.95v-58.8h13.34l-.11,17.47h2.26c.98-4.18,2.38-7.69,4.18-10.53,1.81-2.84,4.09-4.96,6.84-6.38,2.75-1.42,6.01-2.13,9.78-2.13,6.86,0,12.08,2.39,15.66,7.17,3.58,4.78,5.37,12.32,5.37,22.63v30.58h-16.28v-28.9c0-6.2-.92-10.75-2.77-13.66-1.85-2.91-4.58-4.37-8.2-4.37-3.09,0-5.64.93-7.63,2.8-2,1.87-3.52,4.31-4.58,7.34-1.06,3.02-1.58,6.4-1.58,10.14v26.66h-16.28Z"/>
        <path class="cls-2" d="M558.49,330.95v-58.8h13.46l.11,20.16h2.15c.6-5.08,1.62-9.18,3.05-12.32,1.43-3.14,3.49-5.47,6.16-7,2.67-1.53,5.97-2.3,9.89-2.3.6,0,1.32.04,2.15.11.83.08,1.77.19,2.83.34l-.68,17.14c-1.13-.52-2.37-.88-3.73-1.06-1.36-.19-2.53-.28-3.51-.28-2.94,0-5.5.65-7.69,1.96-2.19,1.31-3.92,3.23-5.2,5.77-1.28,2.54-2.19,5.6-2.71,9.19v27.11h-16.28Z"/>
      </g>
      <rect class="cls-5" x="233.87" y="247.79" width="68.63" height="20.12" transform="translate(640.13 250.53) rotate(135)"/>
      <polygon class="cls-4" points="314.52 324.4 285.44 353.38 271.36 339.29 286.09 324.6 256.83 295.25 271.19 280.93 314.52 324.4"/>
      <polygon class="cls-3" points="276.52 275.72 305.6 246.74 319.69 260.83 304.96 275.51 334.22 304.87 319.85 319.19 276.52 275.72"/>
      <circle class="cls-5" cx="598.3" cy="324.16" r="6.79"/>
    </g>
  </g>
</svg>